<mxfile host="app.diagrams.net" modified="2024-03-16T12:49:43.195Z" agent="Mozilla/5.0 (Windows NT 10.0; Win64; x64) AppleWebKit/537.36 (KHTML, like Gecko) Chrome/122.0.0.0 Safari/537.36 Edg/122.0.0.0" etag="MQ074P-R7sZrOsslTyz6" version="24.0.6" type="google">
  <diagram name="Page-1" id="kFQcFFDHwn5SPLqQjoKy">
    <mxGraphModel grid="1" page="1" gridSize="10" guides="1" tooltips="1" connect="1" arrows="1" fold="1" pageScale="1" pageWidth="827" pageHeight="1169" math="0" shadow="0">
      <root>
        <mxCell id="0" />
        <mxCell id="1" parent="0" />
        <mxCell id="AoSn9keS_UYxFgUnVAt5-4" value="" style="edgeStyle=orthogonalEdgeStyle;rounded=0;orthogonalLoop=1;jettySize=auto;html=1;" edge="1" parent="1" source="AoSn9keS_UYxFgUnVAt5-2" target="AoSn9keS_UYxFgUnVAt5-3">
          <mxGeometry relative="1" as="geometry" />
        </mxCell>
        <mxCell id="AoSn9keS_UYxFgUnVAt5-2" value="Start" style="ellipse;whiteSpace=wrap;html=1;" vertex="1" parent="1">
          <mxGeometry x="390" width="120" height="80" as="geometry" />
        </mxCell>
        <mxCell id="AoSn9keS_UYxFgUnVAt5-6" value="" style="edgeStyle=orthogonalEdgeStyle;rounded=0;orthogonalLoop=1;jettySize=auto;html=1;" edge="1" parent="1" source="AoSn9keS_UYxFgUnVAt5-3" target="AoSn9keS_UYxFgUnVAt5-5">
          <mxGeometry relative="1" as="geometry" />
        </mxCell>
        <mxCell id="AoSn9keS_UYxFgUnVAt5-3" value="Input a, b, c" style="shape=parallelogram;perimeter=parallelogramPerimeter;whiteSpace=wrap;html=1;fixedSize=1;" vertex="1" parent="1">
          <mxGeometry x="318" y="120" width="160" height="80" as="geometry" />
        </mxCell>
        <mxCell id="AoSn9keS_UYxFgUnVAt5-8" value="Yes" style="edgeStyle=orthogonalEdgeStyle;rounded=0;orthogonalLoop=1;jettySize=auto;html=1;" edge="1" parent="1" source="AoSn9keS_UYxFgUnVAt5-5" target="AoSn9keS_UYxFgUnVAt5-7">
          <mxGeometry relative="1" as="geometry" />
        </mxCell>
        <mxCell id="AoSn9keS_UYxFgUnVAt5-23" value="No" style="edgeStyle=orthogonalEdgeStyle;rounded=0;orthogonalLoop=1;jettySize=auto;html=1;" edge="1" parent="1" source="AoSn9keS_UYxFgUnVAt5-5" target="AoSn9keS_UYxFgUnVAt5-22">
          <mxGeometry relative="1" as="geometry" />
        </mxCell>
        <mxCell id="AoSn9keS_UYxFgUnVAt5-5" value="&lt;font size=&quot;3&quot;&gt;a=0&lt;/font&gt;" style="rhombus;whiteSpace=wrap;html=1;" vertex="1" parent="1">
          <mxGeometry x="310" y="230" width="140" height="80" as="geometry" />
        </mxCell>
        <mxCell id="AoSn9keS_UYxFgUnVAt5-10" value="Yes" style="edgeStyle=orthogonalEdgeStyle;rounded=0;orthogonalLoop=1;jettySize=auto;html=1;" edge="1" parent="1" source="AoSn9keS_UYxFgUnVAt5-7" target="AoSn9keS_UYxFgUnVAt5-9">
          <mxGeometry relative="1" as="geometry" />
        </mxCell>
        <mxCell id="AoSn9keS_UYxFgUnVAt5-7" value="&lt;font size=&quot;3&quot;&gt;b=0&lt;/font&gt;" style="rhombus;whiteSpace=wrap;html=1;" vertex="1" parent="1">
          <mxGeometry x="310" y="350" width="140" height="80" as="geometry" />
        </mxCell>
        <mxCell id="AoSn9keS_UYxFgUnVAt5-12" value="Yes" style="edgeStyle=orthogonalEdgeStyle;rounded=0;orthogonalLoop=1;jettySize=auto;html=1;" edge="1" parent="1" source="AoSn9keS_UYxFgUnVAt5-9" target="AoSn9keS_UYxFgUnVAt5-11">
          <mxGeometry relative="1" as="geometry" />
        </mxCell>
        <mxCell id="AoSn9keS_UYxFgUnVAt5-9" value="&lt;font size=&quot;3&quot;&gt;c=0&lt;/font&gt;" style="rhombus;whiteSpace=wrap;html=1;" vertex="1" parent="1">
          <mxGeometry x="80" y="350" width="140" height="80" as="geometry" />
        </mxCell>
        <mxCell id="AoSn9keS_UYxFgUnVAt5-33" value="" style="edgeStyle=orthogonalEdgeStyle;rounded=0;orthogonalLoop=1;jettySize=auto;html=1;" edge="1" parent="1" source="AoSn9keS_UYxFgUnVAt5-11" target="AoSn9keS_UYxFgUnVAt5-29">
          <mxGeometry relative="1" as="geometry">
            <Array as="points">
              <mxPoint x="150" y="720" />
            </Array>
          </mxGeometry>
        </mxCell>
        <mxCell id="AoSn9keS_UYxFgUnVAt5-11" value="Display Vô số nghiệm" style="shape=parallelogram;perimeter=parallelogramPerimeter;whiteSpace=wrap;html=1;fixedSize=1;" vertex="1" parent="1">
          <mxGeometry x="70" y="530" width="160" height="90" as="geometry" />
        </mxCell>
        <mxCell id="AoSn9keS_UYxFgUnVAt5-32" value="" style="edgeStyle=orthogonalEdgeStyle;rounded=0;orthogonalLoop=1;jettySize=auto;html=1;" edge="1" parent="1" source="AoSn9keS_UYxFgUnVAt5-13" target="AoSn9keS_UYxFgUnVAt5-29">
          <mxGeometry relative="1" as="geometry">
            <Array as="points">
              <mxPoint x="305" y="720" />
            </Array>
          </mxGeometry>
        </mxCell>
        <mxCell id="AoSn9keS_UYxFgUnVAt5-13" value="Display Vô nghiệm" style="shape=parallelogram;perimeter=parallelogramPerimeter;whiteSpace=wrap;html=1;fixedSize=1;" vertex="1" parent="1">
          <mxGeometry x="230" y="530" width="150" height="90" as="geometry" />
        </mxCell>
        <mxCell id="AoSn9keS_UYxFgUnVAt5-14" value="No" style="endArrow=classic;html=1;rounded=0;entryX=0.567;entryY=0.01;entryDx=0;entryDy=0;entryPerimeter=0;exitX=0.5;exitY=1;exitDx=0;exitDy=0;" edge="1" parent="1" source="AoSn9keS_UYxFgUnVAt5-9" target="AoSn9keS_UYxFgUnVAt5-13">
          <mxGeometry width="50" height="50" relative="1" as="geometry">
            <mxPoint x="240" y="490" as="sourcePoint" />
            <mxPoint x="290" y="440" as="targetPoint" />
          </mxGeometry>
        </mxCell>
        <mxCell id="AoSn9keS_UYxFgUnVAt5-31" value="" style="edgeStyle=orthogonalEdgeStyle;rounded=0;orthogonalLoop=1;jettySize=auto;html=1;" edge="1" parent="1" source="AoSn9keS_UYxFgUnVAt5-16" target="AoSn9keS_UYxFgUnVAt5-29">
          <mxGeometry relative="1" as="geometry">
            <Array as="points">
              <mxPoint x="560" y="720" />
            </Array>
          </mxGeometry>
        </mxCell>
        <mxCell id="AoSn9keS_UYxFgUnVAt5-16" value="Display Một Nghiệm" style="shape=parallelogram;perimeter=parallelogramPerimeter;whiteSpace=wrap;html=1;fixedSize=1;" vertex="1" parent="1">
          <mxGeometry x="478" y="540" width="164" height="90" as="geometry" />
        </mxCell>
        <mxCell id="AoSn9keS_UYxFgUnVAt5-18" value="No" style="endArrow=classic;html=1;rounded=0;entryX=0.5;entryY=0;entryDx=0;entryDy=0;exitX=0.5;exitY=1;exitDx=0;exitDy=0;" edge="1" parent="1" source="AoSn9keS_UYxFgUnVAt5-7" target="AoSn9keS_UYxFgUnVAt5-16">
          <mxGeometry width="50" height="50" relative="1" as="geometry">
            <mxPoint x="430" y="500" as="sourcePoint" />
            <mxPoint x="480" y="450" as="targetPoint" />
          </mxGeometry>
        </mxCell>
        <mxCell id="AoSn9keS_UYxFgUnVAt5-20" value="Yes" style="edgeStyle=orthogonalEdgeStyle;rounded=0;orthogonalLoop=1;jettySize=auto;html=1;" edge="1" parent="1" source="AoSn9keS_UYxFgUnVAt5-19" target="AoSn9keS_UYxFgUnVAt5-16">
          <mxGeometry relative="1" as="geometry" />
        </mxCell>
        <mxCell id="AoSn9keS_UYxFgUnVAt5-19" value="&lt;br&gt;&lt;span style=&quot;color: rgb(0, 0, 0); font-family: Helvetica; font-size: medium; font-style: normal; font-variant-ligatures: normal; font-variant-caps: normal; font-weight: 400; letter-spacing: normal; orphans: 2; text-align: center; text-indent: 0px; text-transform: none; widows: 2; word-spacing: 0px; -webkit-text-stroke-width: 0px; white-space: normal; background-color: rgb(251, 251, 251); text-decoration-thickness: initial; text-decoration-style: initial; text-decoration-color: initial; display: inline !important; float: none;&quot;&gt;∆=0&lt;/span&gt;" style="rhombus;whiteSpace=wrap;html=1;" vertex="1" parent="1">
          <mxGeometry x="490" y="350" width="140" height="80" as="geometry" />
        </mxCell>
        <mxCell id="AoSn9keS_UYxFgUnVAt5-21" value="No" style="endArrow=classic;html=1;rounded=0;entryX=0.5;entryY=0;entryDx=0;entryDy=0;exitX=0.5;exitY=1;exitDx=0;exitDy=0;" edge="1" parent="1" source="AoSn9keS_UYxFgUnVAt5-19" target="AoSn9keS_UYxFgUnVAt5-13">
          <mxGeometry width="50" height="50" relative="1" as="geometry">
            <mxPoint x="390" y="590" as="sourcePoint" />
            <mxPoint x="440" y="540" as="targetPoint" />
          </mxGeometry>
        </mxCell>
        <mxCell id="AoSn9keS_UYxFgUnVAt5-25" value="" style="edgeStyle=orthogonalEdgeStyle;rounded=0;orthogonalLoop=1;jettySize=auto;html=1;" edge="1" parent="1" source="AoSn9keS_UYxFgUnVAt5-22" target="AoSn9keS_UYxFgUnVAt5-24">
          <mxGeometry relative="1" as="geometry" />
        </mxCell>
        <mxCell id="AoSn9keS_UYxFgUnVAt5-22" value="&lt;font style=&quot;font-size: 14px;&quot;&gt;&lt;br&gt;&lt;/font&gt;&lt;table class=&quot;NormalTable&quot;&gt;&lt;tbody&gt;&lt;tr&gt;&lt;td width=&quot;126&quot;&gt;&lt;font size=&quot;3&quot;&gt;&lt;span class=&quot;fontstyle0&quot;&gt;∆ =&lt;/span&gt;&lt;span class=&quot;fontstyle2&quot;&gt;&amp;nbsp;&lt;/span&gt;&lt;span class=&quot;fontstyle0&quot;&gt;b*b&lt;/span&gt;&lt;span style=&quot;&quot; class=&quot;fontstyle0&quot;&gt;&amp;nbsp;&lt;/span&gt;&lt;span class=&quot;fontstyle0&quot;&gt;- 4ac&lt;/span&gt;&lt;/font&gt;&lt;/td&gt;&lt;/tr&gt;&lt;/tbody&gt;&lt;/table&gt;" style="whiteSpace=wrap;html=1;" vertex="1" parent="1">
          <mxGeometry x="640" y="240" width="220" height="60" as="geometry" />
        </mxCell>
        <mxCell id="AoSn9keS_UYxFgUnVAt5-26" value="No" style="edgeStyle=orthogonalEdgeStyle;rounded=0;orthogonalLoop=1;jettySize=auto;html=1;" edge="1" parent="1" source="AoSn9keS_UYxFgUnVAt5-24" target="AoSn9keS_UYxFgUnVAt5-19">
          <mxGeometry relative="1" as="geometry" />
        </mxCell>
        <mxCell id="AoSn9keS_UYxFgUnVAt5-28" value="Yes" style="edgeStyle=orthogonalEdgeStyle;rounded=0;orthogonalLoop=1;jettySize=auto;html=1;" edge="1" parent="1" source="AoSn9keS_UYxFgUnVAt5-24" target="AoSn9keS_UYxFgUnVAt5-27">
          <mxGeometry relative="1" as="geometry" />
        </mxCell>
        <mxCell id="AoSn9keS_UYxFgUnVAt5-24" value="&lt;span style=&quot;font-size: medium;&quot;&gt;∆&amp;gt;0&lt;/span&gt;" style="rhombus;whiteSpace=wrap;html=1;" vertex="1" parent="1">
          <mxGeometry x="680" y="350" width="140" height="80" as="geometry" />
        </mxCell>
        <mxCell id="AoSn9keS_UYxFgUnVAt5-30" value="" style="edgeStyle=orthogonalEdgeStyle;rounded=0;orthogonalLoop=1;jettySize=auto;html=1;" edge="1" parent="1" source="AoSn9keS_UYxFgUnVAt5-27" target="AoSn9keS_UYxFgUnVAt5-29">
          <mxGeometry relative="1" as="geometry">
            <Array as="points">
              <mxPoint x="750" y="720" />
              <mxPoint x="413" y="720" />
            </Array>
          </mxGeometry>
        </mxCell>
        <mxCell id="AoSn9keS_UYxFgUnVAt5-27" value="Display Hai nghiệm" style="shape=parallelogram;perimeter=parallelogramPerimeter;whiteSpace=wrap;html=1;fixedSize=1;" vertex="1" parent="1">
          <mxGeometry x="668" y="540" width="164" height="90" as="geometry" />
        </mxCell>
        <mxCell id="AoSn9keS_UYxFgUnVAt5-29" value="End" style="ellipse;whiteSpace=wrap;html=1;" vertex="1" parent="1">
          <mxGeometry x="370" y="680" width="130" height="80" as="geometry" />
        </mxCell>
        <mxCell id="2Fl3vI2aPy2AwTQ9L7a0-1" value="&lt;b&gt;&lt;font style=&quot;font-size: 14px;&quot;&gt;&lt;span class=&quot;fontstyle0&quot;&gt;Prototype&lt;/span&gt;&lt;span class=&quot;fontstyle1&quot;&gt;: &lt;/span&gt;&lt;span class=&quot;fontstyle3&quot;&gt;int so_nghiem_ptb2(float a, float b, float c)&lt;/span&gt;&lt;/font&gt;&lt;/b&gt;" style="text;html=1;align=center;verticalAlign=middle;whiteSpace=wrap;rounded=0;" vertex="1" parent="1">
          <mxGeometry width="380" height="80" as="geometry" />
        </mxCell>
      </root>
    </mxGraphModel>
  </diagram>
</mxfile>
